<mxfile host="Electron" modified="2024-05-02T05:33:10.689Z" agent="Mozilla/5.0 (Windows NT 10.0; Win64; x64) AppleWebKit/537.36 (KHTML, like Gecko) draw.io/24.2.5 Chrome/120.0.6099.109 Electron/28.1.0 Safari/537.36" etag="tW42kBu9-PjbK2ctvsAR" version="24.2.5" type="device">
  <diagram name="Страница — 1" id="luZcN4dnvda6NL4qr2v2">
    <mxGraphModel dx="1290" dy="621" grid="1" gridSize="10" guides="1" tooltips="1" connect="1" arrows="1" fold="1" page="1" pageScale="1" pageWidth="827" pageHeight="1169" math="0" shadow="0">
      <root>
        <mxCell id="0" />
        <mxCell id="1" parent="0" />
        <mxCell id="fQ2NoZvklJrNPGMFT9gY-5" style="edgeStyle=orthogonalEdgeStyle;rounded=0;orthogonalLoop=1;jettySize=auto;html=1;" edge="1" parent="1" source="fQ2NoZvklJrNPGMFT9gY-1" target="fQ2NoZvklJrNPGMFT9gY-2">
          <mxGeometry relative="1" as="geometry" />
        </mxCell>
        <mxCell id="fQ2NoZvklJrNPGMFT9gY-1" value="Получение анкет с API" style="rounded=0;whiteSpace=wrap;html=1;" vertex="1" parent="1">
          <mxGeometry x="40" y="200" width="120" height="60" as="geometry" />
        </mxCell>
        <mxCell id="fQ2NoZvklJrNPGMFT9gY-6" style="edgeStyle=orthogonalEdgeStyle;rounded=0;orthogonalLoop=1;jettySize=auto;html=1;" edge="1" parent="1" source="fQ2NoZvklJrNPGMFT9gY-2" target="fQ2NoZvklJrNPGMFT9gY-3">
          <mxGeometry relative="1" as="geometry" />
        </mxCell>
        <mxCell id="fQ2NoZvklJrNPGMFT9gY-2" value="Занесение анкет в БД" style="rounded=0;whiteSpace=wrap;html=1;" vertex="1" parent="1">
          <mxGeometry x="240" y="200" width="120" height="60" as="geometry" />
        </mxCell>
        <mxCell id="fQ2NoZvklJrNPGMFT9gY-7" style="edgeStyle=orthogonalEdgeStyle;rounded=0;orthogonalLoop=1;jettySize=auto;html=1;" edge="1" parent="1" source="fQ2NoZvklJrNPGMFT9gY-3" target="fQ2NoZvklJrNPGMFT9gY-4">
          <mxGeometry relative="1" as="geometry" />
        </mxCell>
        <mxCell id="fQ2NoZvklJrNPGMFT9gY-3" value="Преобразование записей в БД в датафрейм" style="rounded=0;whiteSpace=wrap;html=1;" vertex="1" parent="1">
          <mxGeometry x="440" y="200" width="120" height="60" as="geometry" />
        </mxCell>
        <mxCell id="fQ2NoZvklJrNPGMFT9gY-4" value="Построение графиков" style="rounded=0;whiteSpace=wrap;html=1;" vertex="1" parent="1">
          <mxGeometry x="640" y="200" width="120" height="60" as="geometry" />
        </mxCell>
      </root>
    </mxGraphModel>
  </diagram>
</mxfile>
